<mxfile host="65bd71144e">
    <diagram id="i2NxC-65wJUTWMW6SPuN" name="Page-1">
        <mxGraphModel dx="1316" dy="613" grid="1" gridSize="10" guides="1" tooltips="1" connect="1" arrows="1" fold="1" page="1" pageScale="1" pageWidth="827" pageHeight="1169" math="0" shadow="0">
            <root>
                <mxCell id="0"/>
                <mxCell id="1" parent="0"/>
                <mxCell id="11" value="" style="rounded=0;whiteSpace=wrap;html=1;" parent="1" vertex="1">
                    <mxGeometry x="40" y="160" width="750" height="430" as="geometry"/>
                </mxCell>
                <mxCell id="2" value="" style="shape=ext;double=1;rounded=0;whiteSpace=wrap;html=1;" parent="1" vertex="1">
                    <mxGeometry x="110" y="270" width="380" height="240" as="geometry"/>
                </mxCell>
                <mxCell id="3" value="pod" style="ellipse;shape=doubleEllipse;whiteSpace=wrap;html=1;aspect=fixed;" parent="1" vertex="1">
                    <mxGeometry x="180" y="350" width="80" height="80" as="geometry"/>
                </mxCell>
                <mxCell id="4" value="pod" style="ellipse;shape=doubleEllipse;whiteSpace=wrap;html=1;aspect=fixed;" parent="1" vertex="1">
                    <mxGeometry x="340" y="350" width="80" height="80" as="geometry"/>
                </mxCell>
                <UserObject label="helloworld" placeholders="1" name="Variable" id="6">
                    <mxCell style="text;html=1;strokeColor=none;fillColor=none;align=center;verticalAlign=middle;whiteSpace=wrap;overflow=hidden;" parent="1" vertex="1">
                        <mxGeometry x="180" y="440" width="80" height="20" as="geometry"/>
                    </mxCell>
                </UserObject>
                <UserObject label="helloworld" placeholders="1" name="Variable" id="7">
                    <mxCell style="text;html=1;strokeColor=none;fillColor=none;align=center;verticalAlign=middle;whiteSpace=wrap;overflow=hidden;" parent="1" vertex="1">
                        <mxGeometry x="340" y="440" width="80" height="20" as="geometry"/>
                    </mxCell>
                </UserObject>
                <mxCell id="10" value="port&lt;br&gt;8080" style="shape=ext;double=1;rounded=1;whiteSpace=wrap;html=1;" parent="1" vertex="1">
                    <mxGeometry x="390" y="250" width="70" height="40" as="geometry"/>
                </mxCell>
                <UserObject label="k8s環境" placeholders="1" name="Variable" id="12">
                    <mxCell style="text;html=1;strokeColor=none;fillColor=none;align=center;verticalAlign=middle;whiteSpace=wrap;overflow=hidden;" parent="1" vertex="1">
                        <mxGeometry x="50" y="170" width="80" height="20" as="geometry"/>
                    </mxCell>
                </UserObject>
                <mxCell id="14" value="master" style="ellipse;shape=doubleEllipse;whiteSpace=wrap;html=1;aspect=fixed;" parent="1" vertex="1">
                    <mxGeometry x="60" y="200" width="60" height="60" as="geometry"/>
                </mxCell>
                <UserObject label="IP:&amp;nbsp;10.42.0.13" placeholders="1" name="Variable" id="17">
                    <mxCell style="text;html=1;strokeColor=none;fillColor=none;align=center;verticalAlign=middle;whiteSpace=wrap;overflow=hidden;" parent="1" vertex="1">
                        <mxGeometry x="180" y="460" width="80" height="20" as="geometry"/>
                    </mxCell>
                </UserObject>
                <UserObject label="IP:&amp;nbsp;10.42.0.14" placeholders="1" name="Variable" id="18">
                    <mxCell style="text;html=1;strokeColor=none;fillColor=none;align=center;verticalAlign=middle;whiteSpace=wrap;overflow=hidden;" parent="1" vertex="1">
                        <mxGeometry x="340" y="460" width="80" height="20" as="geometry"/>
                    </mxCell>
                </UserObject>
                <mxCell id="22" style="edgeStyle=none;html=1;exitX=0;exitY=0.5;exitDx=0;exitDy=0;entryX=1;entryY=0.5;entryDx=0;entryDy=0;" edge="1" parent="1" source="19" target="17">
                    <mxGeometry relative="1" as="geometry"/>
                </mxCell>
                <mxCell id="23" value="curl" style="edgeLabel;html=1;align=center;verticalAlign=middle;resizable=0;points=[];rotation=0;" vertex="1" connectable="0" parent="22">
                    <mxGeometry x="-0.7844" y="-2" relative="1" as="geometry">
                        <mxPoint x="-2" y="3" as="offset"/>
                    </mxGeometry>
                </mxCell>
                <mxCell id="19" value="pod" style="ellipse;shape=doubleEllipse;whiteSpace=wrap;html=1;aspect=fixed;" vertex="1" parent="1">
                    <mxGeometry x="610" y="350" width="80" height="80" as="geometry"/>
                </mxCell>
                <UserObject label="curl" placeholders="1" name="Variable" id="20">
                    <mxCell style="text;html=1;strokeColor=none;fillColor=none;align=center;verticalAlign=middle;whiteSpace=wrap;overflow=hidden;" vertex="1" parent="1">
                        <mxGeometry x="610" y="440" width="80" height="20" as="geometry"/>
                    </mxCell>
                </UserObject>
                <UserObject label="IP:&amp;nbsp;10.42.0.16" placeholders="1" name="Variable" id="21">
                    <mxCell style="text;html=1;strokeColor=none;fillColor=none;align=center;verticalAlign=middle;whiteSpace=wrap;overflow=hidden;" vertex="1" parent="1">
                        <mxGeometry x="610" y="460" width="80" height="20" as="geometry"/>
                    </mxCell>
                </UserObject>
            </root>
        </mxGraphModel>
    </diagram>
</mxfile>
